<svg xmlns="http://www.w3.org/2000/svg" fill="none" viewBox="0 0 90 90" class="w-7"><g clip-path="url(#foyer-logo_svg__a)"><path fill="url(#foyer-logo_svg__b)" d="M79.2 0H10.8C4.835 0 0 4.835 0 10.8v68.4C0 85.165 4.835 90 10.8 90h68.4C85.165 90 90 85.165 90 79.2V10.8C90 4.835 85.165 0 79.2 0"></path><path fill="#1E293B" fill-rule="evenodd" d="M20.59 20.05a2.7 2.7 0 0 1 3.82 0l9 9a2.7 2.7 0 0 1 0 3.82l-9 9a2.7 2.7 0 0 1-3.82-3.82l7.092-7.09-7.091-7.09a2.7 2.7 0 0 1 0-3.82m49 0a2.7 2.7 0 0 1 0 3.82l-7.091 7.09 7.09 7.09a2.7 2.7 0 1 1-3.818 3.82l-9-9a2.7 2.7 0 0 1 0-3.82l9-9a2.7 2.7 0 0 1 3.818 0M40.594 37.384a2.7 2.7 0 0 1 3.382 1.772c.101.324.343.578.915.78a3.8 3.8 0 0 0 1 .204q.051-.004.162-.018c.178-.025.423-.075.682-.171.506-.189.937-.494 1.19-1.072a2.7 2.7 0 1 1 4.948 2.164c-1.007 2.302-2.826 3.437-4.255 3.968a8.7 8.7 0 0 1-2.41.52 6 6 0 0 1-.261.01h-.045c-.002 0-.003 0-.003-2.7 0 2.7-.001 2.7-.002 2.7h-.043a6 6 0 0 1-.263-.01 9.199 9.199 0 0 1-2.51-.506c-1.452-.517-3.46-1.703-4.26-4.259a2.7 2.7 0 0 1 1.773-3.382" clip-rule="evenodd"></path></g><defs><radialGradient id="foyer-logo_svg__b" cx="0" cy="0" r="1" gradientTransform="rotate(45)scale(127.279)" gradientUnits="userSpaceOnUse"><stop offset="0.576" stop-color="#FAFAF9"></stop><stop offset="0.753" stop-color="#D5BAEC"></stop><stop offset="1" stop-color="#7E22CE"></stop></radialGradient><clipPath id="foyer-logo_svg__a"><path fill="#fff" d="M0 0h90v90H0z"></path></clipPath></defs></svg>